<svg xmlns="http://www.w3.org/2000/svg" version="1.1" xmlns:xlink="http://www.w3.org/1999/xlink" xmlns:svgjs="http://svgjs.dev/svgjs" width="1440" height="560" preserveAspectRatio="none" viewBox="0 0 1440 560"><g mask="url(&quot;#SvgjsMask1000&quot;)" fill="none"><rect width="1440" height="560" x="0" y="0" fill="#1e3266"></rect><path d="M1488 560L0 560 L0 296.36Q99.19 275.56, 120 374.75Q157.01 291.76, 240 328.78Q310.74 279.52, 360 350.26Q433.81 304.07, 480 377.89Q497.58 275.47, 600 293.04Q642.17 263.21, 672 305.38Q744.55 257.93, 792 330.47Q861.04 279.51, 912 348.56Q982.01 298.57, 1032 368.59Q1063.13 279.71, 1152 310.84Q1172.96 259.8, 1224 280.76Q1312.64 249.4, 1344 338.04Q1398.27 320.31, 1416 374.58Q1416.4 302.98, 1488 303.38z" fill="#182f5d"></path><path d="M1488 560L0 560 L0 363.71Q83.79 327.5, 120 411.28Q165.02 384.3, 192 429.32Q215.32 332.64, 312 355.96Q389.07 313.03, 432 390.1Q481.91 368.01, 504 417.92Q552.66 394.59, 576 443.25Q605.49 400.74, 648 430.22Q700.07 362.3, 768 414.37Q786.91 361.28, 840 380.2Q885.65 353.86, 912 399.51Q956.63 324.14, 1032 368.78Q1078.09 342.87, 1104 388.96Q1177.87 342.82, 1224 416.69Q1262.95 335.64, 1344 374.59Q1395.35 353.93, 1416 405.28Q1469.56 386.84, 1488 440.4z" fill="#25467d"></path><path d="M1512 560L0 560 L0 486.44Q45.93 460.38, 72 506.31Q87.58 449.89, 144 465.47Q169.76 419.24, 216 445Q268.52 377.52, 336 430.05Q434.69 408.74, 456 507.42Q490.53 421.95, 576 456.47Q644.6 405.07, 696 473.67Q775.39 433.06, 816 512.45Q844.44 420.89, 936 449.34Q965.12 406.45, 1008 435.57Q1106.34 413.9, 1128 512.24Q1146.27 458.51, 1200 476.79Q1243.21 400, 1320 443.22Q1417.08 420.3, 1440 517.38Q1464.65 470.03, 1512 494.68z" fill="#356cb1"></path><path d="M1488 560L0 560 L0 496.44Q56.81 481.25, 72 538.07Q130.59 524.66, 144 583.26Q190.7 509.96, 264 556.67Q292.16 464.83, 384 492.98Q460.59 449.57, 504 526.17Q553.49 503.66, 576 553.15Q590.95 496.1, 648 511.04Q717.91 460.95, 768 530.86Q852.1 494.96, 888 579.06Q929.75 500.8, 1008 542.55Q1036.56 499.11, 1080 527.67Q1106.37 482.04, 1152 508.41Q1240.65 477.07, 1272 565.72Q1287.77 509.49, 1344 525.26Q1365.16 474.42, 1416 495.58Q1491.23 498.81, 1488 574.05z" fill="white"></path></g><defs><mask id="SvgjsMask1000"><rect width="1440" height="560" fill="#ffffff"></rect></mask></defs></svg>